<svg xmlns="http://www.w3.org/2000/svg" width="77" height="95" viewBox="0 0 77 95" version="1.1"><path d="M 41.470 9.031 C 39.305 11.248, 36.075 14.060, 34.293 15.281 C 30.254 18.046, 29.405 21.618, 31.332 27.752 C 32.780 32.365, 34.289 47.664, 34.431 59.170 C 34.488 63.821, 34.073 65.296, 32.124 67.369 C 30.818 68.759, 28.455 70.180, 26.874 70.528 C 20.300 71.972, 24.964 75.565, 34.500 76.403 C 37.800 76.692, 41.979 77.224, 43.787 77.584 C 46.483 78.120, 48.131 77.586, 52.938 74.619 C 60.163 70.160, 64.913 69.802, 67.821 73.499 C 70.269 76.611, 71.021 75.212, 70.955 67.668 C 70.881 59.215, 66.971 53.371, 57.213 47.127 C 47.603 40.978, 46.891 37.859, 53.591 31.254 C 57.459 27.440, 58.076 26.317, 57.512 24.114 C 57.143 22.676, 56.603 18.238, 56.312 14.250 C 55.747 6.535, 54.612 4.937, 53.451 10.223 C 52.577 14.200, 49.059 19.836, 45.787 22.500 C 44.436 23.600, 42.131 26.292, 40.665 28.482 L 38 32.464 38.024 28.982 C 38.068 22.786, 40.022 16.708, 43.550 11.797 C 49.101 4.071, 47.888 2.458, 41.470 9.031" stroke="none" fill="#aa93da" fill-rule="evenodd"/></svg>