<svg xmlns="http://www.w3.org/2000/svg" width="574" height="792" viewBox="0 0 574 792" version="1.1"><path d="" stroke="none" fill="#080404" fill-rule="evenodd"/><path d="M 264.971 2.027 C 260.398 4.766, 257.218 9.487, 256.199 15.052 C 255.157 20.745, 256.089 25.078, 259.378 29.824 C 260.820 31.905, 262 34.315, 262 35.179 C 262 36.043, 260.400 40.261, 258.445 44.552 C 253.256 55.938, 251.666 63.741, 252.423 74.112 C 253.517 89.111, 257.953 101.641, 265.993 112.448 C 270.042 117.890, 272.496 124.542, 273.391 132.500 C 274.525 142.580, 271.127 148.840, 262.259 153.008 C 257.940 155.038, 252.901 156.298, 236.653 159.408 C 227.084 161.240, 223.319 163.870, 219 171.739 C 214.505 179.929, 210.956 189.899, 202.459 218.203 C 194.284 245.434, 191.223 253.078, 185.264 261.141 C 180.786 267.199, 166.297 280.834, 145.126 298.912 C 126.199 315.075, 120.148 319.465, 110.250 324.213 C 101.592 328.368, 91.626 336.955, 88.542 342.918 C 85.997 347.841, 85.473 354.330, 87.460 356.318 C 90.552 359.409, 92.668 358.292, 98.562 350.461 C 104.111 343.088, 109.534 338, 111.844 338 C 113.526 338, 113.358 338.535, 109.505 345.425 C 106.078 351.552, 105.930 353, 108.727 353 C 111.401 353, 121.265 342.434, 126.337 334.136 C 129.148 329.536, 133.180 324.290, 135.297 322.478 C 137.413 320.667, 146.424 314.893, 155.322 309.647 C 175.638 297.671, 187.881 289.242, 197.457 280.637 C 206.884 272.166, 209.861 266.347, 221.431 233.762 C 232.480 202.647, 236.346 195.553, 240.416 198.930 C 243.081 201.142, 242.419 208.277, 238.925 214.989 C 236.449 219.747, 235.844 222.144, 235.814 227.302 C 235.772 234.579, 237.416 238.992, 243.880 248.958 C 249.349 257.390, 252.353 267.332, 252.352 277 C 252.352 286.380, 250.852 291.728, 246.688 297.187 C 241.010 304.631, 236.262 306.776, 219.409 309.508 C 194.077 313.614, 182.670 318.661, 165.803 333.225 C 160.137 338.118, 154.007 342.867, 152.183 343.778 C 149.201 345.267, 148.594 345.282, 146.183 343.929 C 144.251 342.845, 143.500 341.624, 143.500 339.571 C 143.500 335.267, 146.032 334.225, 149.771 336.989 C 155.785 341.435, 158.392 336.546, 152.923 331.077 C 149.495 327.648, 146.426 327.211, 141.967 329.517 C 131.328 335.019, 135.942 351.038, 148.913 353.633 L 152.096 354.269 149.882 356.626 C 144.914 361.914, 135.708 364.360, 129.565 362.025 C 126.153 360.728, 126.323 358.513, 130 356.341 C 133.429 354.315, 133.896 351.550, 131.066 350.035 C 125.297 346.948, 121 351.214, 121 360.028 C 121 366.627, 121.015 366.615, 111.818 367.480 C 96.511 368.919, 95 369.179, 95 370.369 C 95 372.180, 101.854 378.502, 106.907 381.352 L 111.313 383.838 104.476 386.938 C 100.715 388.644, 96.200 391.136, 94.442 392.476 C 91.112 395.017, 90 394.875, 90 391.910 C 90 389.589, 85.483 384.301, 81.931 382.464 C 78.083 380.475, 75.120 380.629, 71.190 383.026 C 65.315 386.608, 63.929 393.626, 68.031 399.021 C 70.821 402.691, 73.354 400.730, 74 394.398 C 74.428 390.205, 74.836 389.452, 76.832 389.170 C 80.296 388.679, 83 391.660, 83 395.968 C 83 400.646, 80.392 403.100, 68.522 409.591 C 53.543 417.782, 47.847 425.390, 49.405 435.129 C 50.254 440.441, 49.374 441.856, 43.615 444.437 C 37.027 447.390, 31.688 452.857, 27.925 460.500 C 23.409 469.673, 22.025 476.219, 22.012 488.464 C 22.002 497.833, 21.799 499.216, 20.618 497.964 C 18.263 495.468, 15.159 485.597, 13.900 476.600 C 13.238 471.870, 12.355 468, 11.938 468 C 11.520 468, 10.014 470.338, 8.589 473.196 C 6.647 477.095, 6 479.930, 6 484.547 C 6 496.154, 10.246 503.470, 19.617 508.011 C 26.942 511.560, 29.142 513.694, 26.363 514.550 C 14.719 518.139, 11.996 521.350, 12.006 531.484 C 12.011 537.840, 13.545 545, 14.901 545 C 16.644 545, 20.952 540.018, 21.529 537.335 C 23.671 527.377, 28.179 521.399, 31.851 523.647 C 34.216 525.095, 43 536.843, 43 538.558 C 43 539.570, 41.826 540, 39.065 540 C 33.754 540, 30.847 541.240, 26.095 545.533 C 18.508 552.388, 15.936 565.409, 20.016 576.314 C 21.973 581.543, 27.571 588.639, 31.364 590.696 C 34.183 592.225, 32.853 594.752, 24.732 603.292 C 17.110 611.308, 13.647 613.071, 9.361 611.118 C 7.463 610.254, 6.944 609.353, 7.184 607.342 C 7.522 604.514, 8.855 603.467, 13.313 602.525 C 15.671 602.026, 16.075 601.491, 15.813 599.215 C 15.550 596.936, 14.956 596.448, 12.112 596.176 C 10.248 595.998, 7.647 596.123, 6.331 596.453 C 1.324 597.710, -1.646 607.294, 1.103 613.327 C 2.441 616.263, 8.782 620, 12.426 620 C 15.477 620, 22.001 616.909, 23.978 614.526 C 24.717 613.636, 26.515 612.058, 27.972 611.020 L 30.622 609.133 29.201 614.950 C 27.188 623.192, 28.944 633.461, 33.358 639.248 C 42.552 651.301, 60.237 650.984, 67.473 638.636 C 70.668 633.184, 70.705 628.057, 67.597 621.382 C 64.762 615.293, 61.843 613, 56.928 613 C 52.723 613, 45.570 617.630, 44.483 621.055 C 43.599 623.839, 46.668 630.760, 49.133 631.542 C 52.036 632.464, 53 631.222, 53 626.563 C 53 620.915, 55.064 618.964, 58.814 621.069 C 62.325 623.040, 63.654 627.872, 62.107 633.039 C 60.489 638.438, 54.546 642.513, 49.487 641.692 C 42.294 640.524, 35.900 632.915, 35.239 624.737 C 33.994 609.333, 47.822 595.116, 69.500 589.512 C 74.782 588.147, 114.787 584.454, 115.591 585.257 C 115.761 585.428, 113.860 588.477, 111.367 592.033 C 108.875 595.590, 105.764 600.589, 104.455 603.142 C 102.771 606.427, 100.033 609.270, 95.091 612.865 C 83.731 621.127, 76.440 632.638, 71.884 649.500 C 70.196 655.751, 69.709 660.454, 69.657 671.014 C 69.620 678.447, 69.947 685.105, 70.383 685.810 C 70.926 686.690, 72.269 685.274, 74.662 681.296 C 78.371 675.133, 78.560 674.880, 90.929 659.589 C 96.008 653.311, 99.548 647.868, 100.587 644.737 L 102.229 639.795 104.281 644.148 C 105.980 647.752, 106.365 650.735, 106.521 661.500 C 106.676 672.216, 107.098 675.508, 108.922 680.238 C 111.680 687.391, 116.950 695.376, 119.195 695.803 C 122.049 696.346, 123.330 689.091, 122.657 676.193 L 122.067 664.887 124.284 665.548 C 129.974 667.247, 132.575 669.709, 136.056 676.690 C 140.999 686.602, 145.769 692.073, 152.224 695.234 C 159.578 698.834, 169.779 701.621, 171.029 700.371 C 172.589 698.811, 167.641 690.056, 160.409 681.581 C 153.631 673.636, 153.675 673.194, 161 675.675 C 161.825 675.954, 171.866 676.567, 183.314 677.035 C 194.762 677.504, 205.638 678.385, 207.482 678.994 C 214.720 681.383, 216.395 690.148, 211.060 697.717 C 209.377 700.105, 208 702.239, 208 702.459 C 208 702.680, 209.366 702.469, 211.035 701.990 C 218.593 699.822, 224 694.097, 224 688.262 C 224 686.651, 224.246 685.087, 224.547 684.786 C 224.848 684.485, 227.813 685.085, 231.136 686.120 C 238.851 688.521, 248.243 688.528, 253.500 686.137 C 255.700 685.136, 260.425 681.799, 264 678.720 C 269.778 673.745, 270.538 673.356, 270.840 675.218 C 271.487 679.206, 267.867 695.902, 265.636 699.212 C 259.656 708.085, 247.435 710.719, 227.750 707.375 C 225.442 706.983, 224 707.132, 224 707.763 C 224 709.456, 236.405 713.886, 245.670 715.502 C 250.443 716.334, 254.416 717.124, 254.499 717.258 C 254.582 717.391, 255.576 722.305, 256.708 728.177 C 259.069 740.428, 261.386 745.857, 265.135 747.926 C 267.492 749.228, 268.054 749.195, 270.468 747.613 C 271.953 746.640, 273.811 744.304, 274.598 742.421 C 276.938 736.820, 279 725.349, 279 717.935 C 279 710.220, 279.499 709.787, 284.723 712.973 C 288.225 715.108, 288.417 715.643, 289.932 727.500 C 290.495 731.900, 291.432 737.174, 292.016 739.219 C 293.317 743.781, 297.553 749, 299.954 749 C 304.947 749, 309.436 741.323, 311.941 728.500 C 314.160 717.142, 313.782 717.576, 326 712.371 C 329.575 710.849, 335.795 707.629, 339.821 705.216 L 347.143 700.829 351.050 703.414 C 353.199 704.836, 356.360 706, 358.074 706 C 364.801 706, 369.872 700.245, 368.530 694.135 C 367.121 687.723, 362.435 687.855, 361.808 694.324 C 361.571 696.765, 360.967 697.576, 359.195 697.827 C 354.285 698.523, 352.396 693.003, 355.493 687.013 C 357.291 683.536, 358.540 683.321, 382 682.458 C 407.688 681.513, 413.945 679.683, 426.532 669.431 C 429.524 666.994, 432.203 665, 432.486 665 C 432.769 665, 433 666.992, 433 669.427 C 433 671.862, 434.774 679.625, 436.942 686.677 C 439.110 693.730, 441.165 701.238, 441.508 703.362 L 442.133 707.224 444.583 704.922 C 448.058 701.657, 452.785 691.733, 453.501 686.197 C 454.816 676.040, 454.262 676.272, 461.775 682.735 C 469.684 689.540, 481.929 696.163, 490.861 698.470 C 494.359 699.373, 497.428 699.905, 497.680 699.653 C 498.283 699.050, 495.127 692.865, 487.755 680.203 C 484.458 674.539, 481.965 669.701, 482.215 669.451 C 482.465 669.202, 486.231 669.930, 490.585 671.070 C 502.684 674.237, 512.469 672.684, 519.923 666.411 C 524.255 662.766, 526.730 657.508, 527.558 650.190 L 528.255 644.028 536.726 644.264 L 545.197 644.500 550.958 638.372 C 560.604 628.114, 559.798 623.919, 545.610 610.500 C 535.989 601.401, 529 592.179, 529 588.584 C 529 586.711, 529.092 586.722, 531.043 588.816 C 536.231 594.384, 545.546 595.396, 556.700 591.602 C 572.192 586.333, 571.352 584.836, 552.544 584.198 L 539.031 583.740 534.515 578.913 C 532.032 576.258, 530 573.616, 530 573.043 C 530 571.774, 529.401 571.729, 536 573.500 C 548.114 576.752, 556.670 574.634, 560.642 567.401 C 563.447 562.291, 564.409 559, 563.097 559 C 562.526 559, 560.003 560.449, 557.491 562.219 C 553.636 564.937, 551.836 565.500, 545.953 565.833 C 539.940 566.173, 538.229 565.857, 533.483 563.536 C 527.059 560.392, 523.729 556.432, 521.109 548.818 C 518.697 541.806, 516.581 537.666, 512.410 531.794 C 508.263 525.957, 508.749 526.112, 525.500 535.980 C 541.240 545.253, 545.829 547.143, 552.599 547.143 C 567.751 547.143, 577.486 532.094, 572.935 515.706 C 571.359 510.029, 564.523 503.412, 558.727 501.953 C 556.109 501.293, 553.714 500.347, 553.407 499.849 C 553.099 499.351, 553.616 495.919, 554.555 492.222 C 557.093 482.230, 556.766 460, 554.081 460 C 553.663 460, 552.808 461.125, 552.182 462.500 C 550.620 465.927, 549.341 465.633, 548.599 461.677 C 548.256 459.849, 546.625 456.223, 544.974 453.620 C 541.608 448.313, 537.377 446, 531.032 446 L 527 446 527 438.625 C 527 434.569, 526.704 429.731, 526.341 427.875 C 525.433 423.221, 514.588 412.753, 508.234 410.399 C 505.630 409.435, 503.331 408.519, 503.125 408.364 C 502.918 408.209, 503.536 406.152, 504.496 403.791 C 507.016 397.601, 506.861 387.400, 504.162 381.870 C 498.170 369.590, 479.909 368.028, 469.563 378.911 C 467.948 380.610, 466.139 382, 465.545 382 C 464.951 382, 462.738 380.827, 460.627 379.393 L 456.790 376.785 457.465 370.479 C 458.275 362.920, 456.650 358.914, 451.733 356.344 C 447.391 354.074, 437.552 354.104, 433.157 356.401 C 431.318 357.361, 429.584 357.917, 429.303 357.636 C 429.022 357.355, 428.382 353.462, 427.881 348.984 C 426.853 339.796, 425.613 336.867, 420.835 332.339 C 416.308 328.050, 405.413 322.244, 400.388 321.443 C 394.696 320.537, 394.130 320.018, 393.157 314.811 C 392.100 309.152, 389.213 304.968, 384.683 302.528 C 381.642 300.891, 380.834 300.826, 378.020 301.992 C 373.746 303.762, 369.686 309.901, 370.540 313.303 C 371.739 318.080, 376.135 317.582, 377.404 312.526 C 378.114 309.699, 381.491 308.333, 383.548 310.040 C 386.481 312.474, 384.621 322.351, 381.014 323.496 C 380.088 323.789, 371.044 322.002, 360.915 319.524 C 350.787 317.046, 341.954 315.014, 341.288 315.009 C 337.888 314.984, 328.160 310.267, 324.444 306.842 C 318.820 301.657, 316.036 294.894, 315.314 284.654 C 314.357 271.102, 318.053 256.597, 325.056 246.418 C 333.182 234.608, 334.312 225.537, 329.055 214.305 C 325.550 206.815, 325.162 202.068, 327.855 199.631 C 332.259 195.646, 334.734 200.232, 347.485 236 C 352.289 249.475, 357.361 262.932, 358.756 265.905 C 364.059 277.208, 381.684 291.512, 412.103 309.201 C 434.436 322.188, 436.835 324.119, 440.757 332.263 C 444.542 340.125, 456.409 353, 459.870 353 C 462.807 353, 462.566 351.719, 458.349 344.886 C 451.387 333.607, 457.991 336.425, 468.289 349.127 C 475.344 357.830, 477.634 359.223, 480.375 356.482 C 484.257 352.600, 481.249 343.706, 473.007 334.695 C 468.836 330.134, 465.706 327.933, 458.405 324.429 C 453.294 321.976, 446.950 318.335, 444.306 316.339 C 430.203 305.686, 394.471 273.945, 386.757 265.217 C 377.113 254.306, 375.130 249.824, 365.451 217.080 C 355.592 183.726, 351.214 172.730, 344.952 165.598 C 341.325 161.467, 338.768 160.534, 324.244 158.042 C 310.562 155.694, 304.189 153.013, 299.057 147.446 C 294.043 142.007, 293.511 139.825, 295.019 130.885 C 296.548 121.822, 298.101 118.119, 303.605 110.404 C 312.439 98.026, 315.288 88.135, 315.388 69.500 C 315.458 56.618, 315.889 58.306, 307.902 40.206 C 306.008 35.913, 305.794 34.589, 306.772 33.206 C 310.844 27.449, 312.341 23.220, 312.357 17.421 C 312.380 9.612, 309.708 5.005, 303.379 1.941 C 299.418 0.024, 297.975 -0.158, 292.167 0.523 C 284.678 1.401, 284.065 1.401, 275 0.535 C 269.467 0.006, 267.975 0.228, 264.971 2.027 M 292.865 9.811 C 295.827 13.971, 296.338 17.255, 294.652 21.292 C 290.081 32.229, 271.745 28.834, 274.571 17.573 C 275.369 14.395, 277 13.532, 280.533 14.419 C 282.310 14.865, 283.236 15.931, 283.652 18.010 C 284.282 21.161, 286 21.152, 286 17.998 C 286 15.441, 282.255 13, 278.334 13 C 274.597 13, 272 15.932, 272 20.151 C 272 23.489, 277.484 29.581, 281.366 30.556 C 284.954 31.456, 291.297 28.624, 294.670 24.616 C 296.866 22.006, 297.154 20.869, 296.776 16.312 C 296.511 13.117, 295.618 10.235, 294.514 9.015 C 291.785 6, 290.569 6.586, 292.865 9.811 M 266.589 11.077 C 263.124 15.195, 262.636 17.728, 264.389 22.500 L 265.859 26.500 265.930 20.327 C 265.988 15.205, 266.441 13.630, 268.589 11.077 C 270.013 9.385, 270.728 8, 270.178 8 C 269.628 8, 268.013 9.385, 266.589 11.077 M 302.500 17.416 C 302.500 25.363, 302.693 26.521, 303.715 24.684 C 305.314 21.808, 305.338 11.844, 303.750 9.673 C 302.718 8.261, 302.500 9.609, 302.500 17.416 M 274.339 47.933 C 268.861 50.420, 262.286 57.098, 259.816 62.684 C 257.170 68.665, 258.289 69.490, 261.059 63.599 C 263.740 57.895, 271.870 50.419, 277.095 48.853 C 279.243 48.210, 281 47.305, 281 46.842 C 281 45.528, 278.866 45.878, 274.339 47.933 M 287 46.513 C 287 46.795, 289.404 48.088, 292.342 49.388 C 298.861 52.271, 304.543 57.769, 307.052 63.621 C 308.084 66.029, 309.384 68, 309.940 68 C 312.608 68, 305.404 56.318, 299.586 51.210 C 295.877 47.953, 287 44.640, 287 46.513 M 280 121 C 280 122.697, 287.707 122.642, 289.450 120.932 C 290.040 120.354, 288.427 120, 285.200 120 C 282.340 120, 280 120.450, 280 121 M 251.471 205.765 C 249.633 207.078, 243.999 220.577, 244.036 223.580 C 244.066 226.025, 244.378 225.649, 245.955 221.268 C 247.961 215.694, 250.471 211.687, 253.892 208.595 C 255.051 207.547, 256 206.310, 256 205.845 C 256 204.811, 252.885 204.756, 251.471 205.765 M 305.899 206.448 C 303.369 207.146, 298.644 208.957, 295.399 210.472 C 286.176 214.781, 283.562 215.136, 278.277 212.798 C 268.906 208.653, 256.086 213.024, 248.344 223.005 C 244.136 228.429, 243.232 231.241, 244.867 233.820 C 245.440 234.722, 246.430 233.199, 248.001 228.998 C 253.097 215.371, 261.329 211.753, 279.801 215.022 C 285.905 216.102, 286.967 216.021, 291.750 214.104 C 294.637 212.947, 299.137 211.152, 301.750 210.114 C 304.363 209.077, 308.863 207.910, 311.750 207.521 C 314.637 207.131, 317 206.405, 317 205.906 C 317 204.653, 311.419 204.925, 305.899 206.448 M 304.971 215.442 C 300.058 217.252, 291.252 221.784, 290.602 222.836 C 289.913 223.950, 293.543 227.282, 297.783 229.426 C 299.588 230.338, 300.827 231.471, 300.536 231.942 C 299.576 233.495, 290.019 235.226, 286.223 234.535 C 284.175 234.162, 279.679 232.318, 276.232 230.437 C 264.964 224.290, 258.919 224.907, 255.262 232.577 C 253.696 235.861, 253.707 236.239, 255.457 239.278 C 256.476 241.050, 259.603 244.975, 262.405 248 C 265.207 251.025, 268.664 255.050, 270.086 256.945 L 272.672 260.390 278.586 255.800 C 285.845 250.165, 290.566 247.756, 303.743 242.964 C 309.377 240.915, 315.136 238.486, 316.541 237.565 C 323.650 232.907, 325.216 221.359, 319.512 215.655 C 317.508 213.651, 310.124 213.542, 304.971 215.442 M 305.500 250.960 L 298.500 252.697 303 254.827 C 305.475 255.998, 308.276 256.966, 309.224 256.978 C 310.833 256.999, 314 252.405, 314 250.050 C 314 248.805, 314.328 248.770, 305.500 250.960 M 256.723 255.610 C 256.426 255.908, 256.611 257.579, 257.135 259.325 C 257.659 261.071, 258.351 267.225, 258.674 273 C 259.459 287.076, 258.088 293.284, 252.340 301.681 C 248.308 307.569, 247.656 309.349, 246.009 318.948 C 244.999 324.835, 243.459 331.360, 242.586 333.448 C 241.714 335.536, 241 337.349, 241 337.478 C 241 337.606, 243.981 337.989, 247.625 338.329 C 259.546 339.443, 268.794 346.908, 267.323 354.231 C 266.758 357.044, 256.483 370.029, 254.242 370.761 C 253.266 371.080, 253.224 370.542, 254.051 368.366 C 255.477 364.614, 255.468 356.743, 254.034 354.064 C 252.421 351.050, 249.006 350, 240.813 350 L 233.756 350 235.408 352.250 C 239.024 357.178, 240.957 362.613, 240.978 367.921 C 240.999 373.030, 240.748 373.585, 236.625 377.535 C 231.894 382.068, 224.927 385, 218.887 385 C 216.821 385, 213.901 385.467, 212.398 386.039 C 209.669 387.076, 209.668 387.079, 211.783 388.561 C 212.948 389.376, 217.635 390.505, 222.200 391.068 C 233.715 392.489, 237.093 393.527, 242.663 397.355 C 249.104 401.783, 253.366 408.691, 253.442 414.828 C 253.492 418.853, 253.223 419.500, 251.500 419.500 C 250.062 419.500, 248.658 417.833, 246.500 413.564 C 243.491 407.609, 237.450 400.217, 236.428 401.238 C 236.128 401.538, 236.610 403.520, 237.499 405.642 C 239.485 410.383, 240.411 420.454, 239.232 424.500 C 238.735 426.209, 236.526 428.899, 234.102 430.750 C 229.355 434.374, 225.337 435.163, 226.462 432.250 C 228.823 426.140, 229.227 414, 227.069 414 C 226.680 414, 225.717 415.430, 224.930 417.179 C 221.410 425.001, 210.297 429.273, 203.121 425.563 C 195.782 421.768, 193.545 411.301, 198.923 405.923 C 202.641 402.205, 208.093 401.867, 210.434 405.209 C 212.270 407.831, 211.424 408.961, 206.938 409.879 C 202.249 410.838, 201.050 413.250, 203.578 416.637 C 206.912 421.102, 208.445 421.635, 212.453 419.724 C 216.485 417.801, 219.991 412.770, 219.996 408.898 C 220.001 405.498, 216.340 400.150, 211.976 397.185 C 209.071 395.211, 207.555 394.889, 202.749 395.225 C 198.078 395.552, 196.411 396.179, 193.873 398.564 C 187.155 404.875, 184.881 416.927, 188.916 424.835 C 193.216 433.264, 204.944 440.564, 216.070 441.738 C 226.335 442.820, 244.731 435.309, 256.235 425.337 C 262.834 419.617, 273 407.824, 273 405.888 C 273 405.318, 271.591 405.174, 269.621 405.543 C 265.521 406.313, 261.321 404.359, 257.619 399.959 C 252.343 393.689, 254.792 384.453, 265.574 369.966 C 276.803 354.878, 277.331 353.538, 276.794 341.484 C 276.262 329.505, 275.677 328.016, 272.631 330.877 C 266.335 336.792, 257.620 336.704, 253.952 330.689 C 250.900 325.683, 251.391 321.409, 255.488 317.313 C 257.406 315.394, 259.543 314.012, 260.238 314.240 C 262.297 314.916, 262.386 319.997, 260.364 321.476 C 258.849 322.584, 258.759 323.175, 259.768 325.390 C 261.128 328.375, 262.631 328.647, 265.738 326.471 C 269.089 324.124, 269.420 319.222, 267.451 301.088 C 265.977 287.513, 265.842 282.945, 266.729 276.626 C 267.401 271.836, 267.478 267.666, 266.929 265.753 C 265.645 261.275, 258.329 254.004, 256.723 255.610 M 293.914 262.040 C 285.519 264.311, 283 268.757, 283 281.301 C 283 291.993, 283.880 295.256, 288.851 303 L 292.381 308.500 293.112 304.407 C 294.705 295.478, 298.865 289.575, 301.076 293.104 C 303.305 296.663, 304.370 305.169, 303.154 309.713 C 301.710 315.112, 302.090 315.731, 309.360 319.834 C 315.663 323.391, 321.485 329.633, 324.023 335.554 C 325.893 339.917, 329.230 354.103, 328.547 354.787 C 328.350 354.983, 326.191 352.074, 323.748 348.322 C 319.424 341.680, 309.155 331, 307.093 331 C 306.528 331, 308.149 335.387, 310.695 340.750 C 313.241 346.113, 316.307 353.291, 317.508 356.703 C 318.709 360.115, 320.916 364.512, 322.412 366.474 C 327.312 372.897, 323.941 377.550, 317.720 372.951 C 314.798 370.790, 314.637 370.776, 313.339 372.552 C 311.051 375.680, 314.259 382.525, 318.513 383.593 C 324.945 385.207, 329.745 381.302, 332.838 371.940 C 339.984 350.306, 336.668 333.693, 321.571 315.500 C 313.788 306.121, 309.709 298.088, 308.016 288.809 L 306.796 282.118 301.933 282.694 C 297.364 283.235, 296.857 283.057, 293.535 279.735 C 291.071 277.271, 290 275.298, 290 273.222 C 290 267.136, 295.743 266.190, 297.617 271.968 C 298.961 276.112, 300.462 276.796, 303.058 274.448 C 305.089 272.610, 305.710 266.668, 304.131 264.178 C 303.006 262.404, 297.119 261.172, 293.914 262.040 M 275.573 300.883 C 274.456 302.689, 286.486 332.584, 298.112 356.896 L 304.996 371.293 308.559 366.626 C 311.199 363.169, 311.951 361.383, 311.461 359.730 C 310.370 356.047, 302.775 342.392, 293.215 326.926 C 288.260 318.910, 282.803 309.572, 281.089 306.176 C 278.100 300.256, 276.757 298.967, 275.573 300.883 M 223 316.116 C 200.121 319.787, 192.831 322.435, 185.706 329.662 C 177.425 338.062, 174.006 349.292, 177.318 357.218 C 179.103 361.491, 185.752 366.675, 190.618 367.588 C 195.606 368.524, 200.907 367.204, 203.531 364.372 C 210.392 356.969, 205.029 342.757, 196.586 345.967 C 192.370 347.570, 192.361 351.900, 196.563 357.676 C 198.037 359.702, 198.004 359.928, 196.082 360.956 C 191.357 363.485, 183.937 355.370, 185.453 349.333 C 186.345 345.776, 193.208 339.408, 196.956 338.659 C 203.138 337.422, 214 344.699, 214 350.077 C 214 351.135, 214.642 352, 215.427 352 C 218.047 352, 220.787 347.058, 222.500 339.240 C 223.434 334.983, 225.923 327.788, 228.034 323.250 C 232.296 314.084, 232.639 314.570, 223 316.116 M 341.283 332.250 C 342.971 337.337, 344.470 342.024, 344.612 342.664 C 344.787 343.450, 346.762 343.052, 350.686 341.438 C 357.431 338.665, 360.982 338.422, 364.931 340.464 C 373.171 344.725, 375.554 353.600, 369.960 359.194 C 367.435 361.718, 366.392 362.128, 363.805 361.611 C 359.890 360.828, 358 359.287, 358 356.878 C 358 355.164, 359.110 354.514, 361.354 354.916 C 363.466 355.295, 366 353.698, 366 351.989 C 366 347.715, 357.688 345.429, 353.306 348.498 C 352.129 349.322, 350.414 351.967, 349.494 354.376 C 347.972 358.362, 347.961 359.024, 349.375 361.758 C 350.229 363.410, 352.393 365.994, 354.183 367.500 C 357.174 370.017, 357.915 370.189, 363.325 369.624 C 375.071 368.396, 380.655 362.504, 381.682 350.253 C 382.231 343.704, 382.138 343.336, 378.830 339 C 374.958 333.922, 369.590 330.101, 363 327.728 C 357.846 325.873, 344.264 323, 340.648 323 L 338.212 323 341.283 332.250 M 385.750 329.080 C 383.495 330.393, 383.546 331.719, 386.069 337.424 C 387.992 341.771, 388.116 343.639, 387.819 363.801 C 387.505 385.144, 387.455 385.592, 384.750 391.100 C 381.428 397.864, 381.418 398.004, 384.250 397.983 C 387.851 397.955, 400.284 395.116, 401.314 394.086 C 401.900 393.500, 401.432 391.816, 400.067 389.609 C 396.274 383.471, 395.892 380.443, 397.026 365.500 C 397.610 357.800, 398.323 350.712, 398.611 349.750 C 399.768 345.882, 402.217 348.270, 406.793 357.728 C 411.428 367.307, 411.505 367.630, 411.836 378.728 C 412.021 384.928, 412.505 390, 412.912 390 C 414.193 390, 417.823 385.615, 418.904 382.761 C 420.639 378.181, 421.296 367.788, 420.125 363.452 C 418.831 358.660, 411.437 346.645, 405.203 339.203 C 400.914 334.084, 392.079 327.997, 389 328.040 C 388.175 328.051, 386.712 328.519, 385.750 329.080 M 165.601 346.064 C 156.247 361.506, 149.602 367.843, 140.393 370.097 C 137.702 370.756, 135.373 371.393, 135.219 371.512 C 135.064 371.631, 135.625 373.028, 136.466 374.615 C 137.307 376.202, 138.448 379.358, 139.003 381.629 C 139.906 385.324, 140.553 385.991, 145.143 387.966 C 151.081 390.521, 151.442 390.262, 152.438 382.755 C 153.856 372.065, 158.805 366.237, 167.500 365.017 C 170.785 364.556, 171.442 364.102, 171.177 362.478 C 171 361.390, 170.550 355.804, 170.177 350.064 L 169.500 339.627 165.601 346.064 M 220.984 358.812 C 218.306 360.980, 218.876 364.032, 222.235 365.509 C 224.866 366.666, 225.792 369.883, 223.848 371.115 C 221.329 372.712, 217.617 372.008, 214.917 369.421 L 212.225 366.841 207.590 370.380 C 202.164 374.521, 198.102 375.485, 189.471 374.680 C 182.708 374.048, 182 374.505, 182 379.505 C 182 382.308, 177.019 387.576, 173.799 388.178 C 170.330 388.828, 166.550 387.619, 166.189 385.745 C 165.976 384.636, 167.146 383.478, 169.684 382.287 C 172.580 380.928, 173.578 379.819, 173.822 377.688 C 174.225 374.182, 172.495 372, 169.312 372 C 165.421 372, 162.970 373.852, 160.937 378.331 C 157.708 385.443, 158.330 389.890, 163.643 397.687 C 169.423 406.168, 178.062 416.271, 178.856 415.478 C 179.183 415.151, 180.005 412.167, 180.682 408.847 C 182.159 401.606, 186.480 394.552, 193.067 388.630 C 199.469 382.874, 202.741 381.433, 216.135 378.470 C 222.317 377.103, 228.437 375.289, 229.733 374.439 C 233.012 372.291, 234.373 368.800, 233.580 364.573 C 232.310 357.803, 225.868 354.857, 220.984 358.812 M 280.463 362.250 C 278.921 364.587, 275.326 369.425, 272.474 373 C 265.333 381.951, 262 388.041, 262 392.138 C 262 396.120, 263.468 398, 266.578 398 C 269.337 398, 270.816 396.217, 271.635 391.905 C 272.668 386.463, 273.892 385.550, 276.663 388.153 C 279.589 390.902, 280.456 390.083, 281.891 383.213 C 283.134 377.260, 284.580 358, 283.783 358 C 283.499 358, 282.004 359.913, 280.463 362.250 M 439.380 361.482 C 434.247 363.641, 428 372.811, 428 378.190 C 428 379.742, 428.454 379.997, 430.250 379.453 C 434.939 378.033, 439 374.857, 439 372.610 C 439 371.385, 439.620 369.535, 440.377 368.499 C 441.706 366.681, 441.865 366.708, 444.904 369.266 C 448.401 372.208, 451 371.931, 451 368.616 C 451 363.160, 444.655 359.264, 439.380 361.482 M 347.938 376.198 C 349.833 384.528, 357.760 394.249, 363.725 395.558 C 365.251 395.893, 367.049 396.335, 367.721 396.541 C 370.189 397.297, 371.708 394.052, 372.268 386.829 C 372.581 382.798, 373.150 378.705, 373.532 377.732 C 374.170 376.111, 373.657 376.018, 367.303 376.608 C 360.959 377.198, 354.856 376.162, 348.344 373.388 C 347.520 373.038, 347.404 373.847, 347.938 376.198 M 483.403 378.651 C 482.250 378.898, 479.844 380.320, 478.057 381.811 C 472.796 386.203, 472.872 396.038, 478.191 399.360 C 481.096 401.174, 484.185 397.439, 483.831 392.540 C 483.563 388.833, 483.743 388.500, 486.006 388.500 C 491.286 388.500, 492.324 398.468, 487.514 402.987 C 486.082 404.332, 483.195 405.417, 479.834 405.874 C 473.101 406.787, 472.330 407.275, 470.432 411.818 C 468.457 416.547, 464.545 420.641, 459.500 423.260 C 451.194 427.572, 435.500 424.722, 435.500 418.902 C 435.500 416.728, 435.833 416.548, 439 417 C 440.925 417.275, 445.513 417.500, 449.196 417.500 C 455.470 417.500, 456.115 417.284, 459.434 414.066 C 463.999 409.639, 466.441 403.324, 465.706 397.845 C 464.314 387.467, 452.869 381.319, 440.214 384.151 C 434.547 385.420, 422.916 391.742, 423.015 393.500 C 423.047 394.050, 428.114 396.445, 434.276 398.823 C 440.438 401.200, 445.641 403.308, 445.839 403.506 C 446.037 403.704, 443.792 405.095, 440.849 406.599 C 436.145 409.002, 434.445 409.318, 426.750 409.213 C 421.938 409.148, 418 409.493, 418 409.979 C 418 410.466, 420.446 413.707, 423.436 417.182 L 428.872 423.500 425.753 423.827 C 420.070 424.423, 415.927 422.974, 411.410 418.810 L 407 414.745 407 418.308 C 407 423.421, 405.347 427.213, 403.291 426.818 C 400.969 426.370, 400.217 423.056, 400.100 412.750 L 400 404 384.710 404 C 360.345 404, 352.867 401.085, 345.500 388.717 C 343.300 385.024, 341.198 382.001, 340.830 382.001 C 339.645 381.999, 338.711 395.101, 339.327 403.090 C 340.787 422.022, 350.144 435.040, 365.855 439.995 C 373.338 442.356, 376.871 442.499, 381.360 440.623 C 389.993 437.016, 388.011 419, 378.981 419 C 372.662 419, 371.032 426.414, 376.793 428.949 C 379.197 430.007, 380.008 430.952, 379.793 432.449 C 379.543 434.202, 378.779 434.500, 374.540 434.500 C 370.015 434.500, 369.379 434.202, 367.290 431.102 C 362.686 424.270, 365.711 416.137, 374.159 412.636 C 379.329 410.493, 381.967 410.820, 386.972 414.221 C 394.588 419.396, 397.050 432.791, 391.835 440.673 C 385.633 450.045, 372.527 451.571, 357.609 444.657 C 353.269 442.646, 349.535 441, 349.311 441 C 347.983 441, 355.898 450.645, 361.060 455.317 C 368.464 462.016, 376.178 465.850, 385.435 467.429 C 389.250 468.080, 392.536 469.107, 392.737 469.712 C 393.255 471.265, 384.262 473, 375.701 472.999 C 369.821 472.999, 367.307 472.450, 362 470.007 L 355.500 467.016 362.821 473.907 C 374.085 484.508, 385.930 489.894, 398.432 490.100 C 401.769 490.155, 405.625 490.535, 407 490.946 C 409.224 491.611, 408.837 491.903, 403.500 493.597 C 399.111 494.989, 394.546 495.500, 386.500 495.500 C 375.939 495.500, 375.201 495.357, 368 491.914 C 362.694 489.377, 358.045 486.016, 352.107 480.425 C 342.874 471.732, 342.162 472.544, 349.217 483.722 C 356.505 495.269, 367.831 503.078, 380.325 505.169 C 388.030 506.459, 406.600 505.563, 414.298 503.531 C 421.168 501.718, 429.233 496.785, 433.752 491.633 C 444.835 478.999, 446.129 461.050, 436.729 450.344 C 432.658 445.708, 429.039 443.999, 423.300 444.004 C 417.581 444.008, 412.769 446.613, 410.549 450.906 C 408.415 455.032, 408.595 456.940, 411.528 461.256 C 414.400 465.483, 418.051 466.846, 421.524 464.987 C 424.966 463.145, 425.163 461.609, 422.430 457.906 C 417.033 450.590, 421.811 446.604, 427.801 453.426 C 431.672 457.835, 432.593 461.953, 430.579 465.848 C 426.710 473.329, 418.292 475.167, 411.253 470.068 C 401.470 462.981, 399.253 455.363, 404.414 446.557 C 409.878 437.232, 421.489 433.382, 431.513 437.570 C 436.567 439.681, 445.037 448.353, 448.049 454.500 C 450.227 458.944, 450.500 460.807, 450.500 471.249 C 450.500 478.633, 450.872 482.877, 451.500 482.671 C 452.890 482.217, 456.583 475.562, 459.086 469 C 460.241 465.975, 462.479 457.496, 464.062 450.158 C 468.514 429.505, 472.661 422.205, 485.730 412.014 C 498.960 401.697, 502.488 394.386, 498.248 386.071 C 495.329 380.346, 489.383 377.374, 483.403 378.651 M 285.706 393.250 C 280.630 407.665, 279.901 411.919, 279.304 430.593 C 278.942 441.915, 279.099 449.355, 279.725 450.473 C 280.607 452.049, 281.078 451.743, 283.714 447.880 C 291.663 436.230, 295.173 419.705, 293.196 403.243 C 291.997 393.269, 290.213 386, 288.962 386 C 288.575 386, 287.111 389.262, 285.706 393.250 M 311.005 389.811 C 311.008 390.190, 312.133 395.675, 313.504 402 C 316.590 416.228, 317.814 438.962, 316.089 450 C 315.445 454.125, 312.712 465.202, 310.016 474.616 C 302.063 502.389, 299.855 519.164, 302.923 528.500 C 305.805 537.269, 316.054 543.687, 325.603 542.702 C 335.875 541.641, 346.050 534.495, 349.805 525.703 C 351.798 521.037, 351.296 513.736, 348.718 509.898 C 345.647 505.326, 341.791 504.868, 337.886 508.610 C 335.359 511.030, 335 512.091, 335 517.128 C 335 524.071, 333.575 525.369, 330.227 521.477 C 328.169 519.085, 327.854 517.872, 328.241 513.841 C 328.926 506.713, 332.893 501.288, 338.520 499.783 C 340.984 499.124, 343 498.237, 343 497.812 C 343 497.387, 341.493 494.668, 339.651 491.769 C 330.265 477.003, 327.683 463.320, 327.803 429 C 327.850 415.525, 328.335 401.133, 328.880 397.019 C 329.425 392.904, 329.766 389.433, 329.639 389.305 C 329.511 389.178, 327.191 389.740, 324.482 390.555 C 320.157 391.857, 319.038 391.860, 315.279 390.579 C 312.926 389.777, 311.002 389.432, 311.005 389.811 M 107.435 393.313 C 96.723 398.439, 90.654 406.448, 90.601 415.526 C 90.542 425.655, 97.708 433.392, 104.843 430.905 C 110.337 428.990, 110.432 422.744, 104.998 420.693 C 101.697 419.447, 100.922 416.139, 103.441 414.049 C 105.601 412.256, 113.700 416.081, 115.004 419.511 C 116.493 423.426, 116.206 430.260, 114.449 432.770 C 112.001 436.264, 109.118 437.292, 100.015 437.917 L 91.523 438.500 89.367 443 C 85.337 451.411, 78.622 455.396, 69.214 454.960 C 62.336 454.642, 62 454.759, 62 457.484 C 62 463.978, 51.944 469.205, 47.060 465.250 C 44.071 462.829, 44.865 460, 48.534 460 C 52.365 460, 55 458.233, 55 455.665 C 55 452.612, 53.186 451, 49.750 451 C 43.786 451, 38.117 455.889, 33.487 465.025 C 30.886 470.158, 28.497 485.147, 29.587 489.492 C 30.174 491.830, 30.445 491.573, 32.991 486.266 C 34.512 483.095, 37.387 478.949, 39.378 477.054 L 43 473.608 42.994 484.054 C 42.988 496.602, 42.100 500.129, 37.496 505.900 L 33.986 510.300 36.626 514.900 C 45.127 529.710, 55.367 539.881, 70.500 548.548 L 75.500 551.411 67.468 542.869 C 54.808 529.406, 49.968 516.862, 50.024 497.662 C 50.065 483.679, 52.429 478.082, 61 471.675 C 65.256 468.494, 74 464.382, 74 465.563 C 74 465.864, 72.214 469.070, 70.032 472.688 C 64.488 481.880, 62.698 488.587, 62.742 500 C 62.866 532.443, 87.130 555.223, 121.409 555.079 C 126.409 555.058, 132.750 554.428, 135.500 553.678 L 140.500 552.314 136.500 551.707 C 134.300 551.372, 129.350 550.819, 125.500 550.477 C 108.879 548.999, 96.518 543.484, 85.986 532.848 C 70.597 517.305, 66.960 497.376, 76.180 479.108 C 82.046 467.486, 90.806 461.066, 103.651 458.975 C 110.425 457.873, 120.309 459.158, 126.659 461.967 C 141.742 468.639, 149.161 486.522, 142.649 500.507 C 137.314 511.962, 124.211 518.160, 112.750 514.650 C 110.138 513.850, 108 513.549, 108 513.982 C 108 514.977, 115.165 521.483, 117.835 522.912 C 122.191 525.243, 129.561 526.114, 136.087 525.069 C 154.998 522.041, 174.565 504.024, 181.713 483.058 C 183.592 477.545, 183.952 474.315, 183.974 462.785 L 184 449.070 180.759 445.378 C 174.753 438.538, 166.301 436.300, 160.299 439.960 C 153.563 444.067, 152.031 452.185, 157.046 457.200 C 159.651 459.805, 160.612 460.162, 163.670 459.666 C 167.811 458.994, 171.206 456.317, 170.778 454.062 C 170.580 453.019, 168.993 452.334, 166 452 C 163.078 451.674, 161.428 450.978, 161.260 450 C 160.779 447.197, 162.776 445.728, 167.712 445.254 C 172.282 444.815, 172.831 445.011, 175.319 447.967 C 177.359 450.392, 178 452.231, 178 455.660 C 178 462.169, 174.344 475.547, 170.670 482.484 C 167.766 487.967, 155.780 502, 154.002 502 C 151.895 502, 155.934 480.868, 159.516 473.153 C 162.301 467.153, 162.083 466, 158.163 466 C 151.691 466, 147.058 458.620, 147.022 448.250 C 146.996 440.805, 146.146 440.479, 137.638 444.651 C 130.932 447.940, 128.867 447.446, 129.972 442.816 C 131.284 437.322, 132.913 433.871, 137.062 427.791 L 141.015 422 135.976 422 C 129.205 422, 125.323 420.190, 120.250 414.670 C 115.737 409.758, 114.885 406.645, 117.750 405.537 C 118.713 405.165, 126.399 404.495, 134.831 404.049 C 143.264 403.603, 150.637 402.763, 151.217 402.183 C 151.957 401.443, 150.812 400.202, 147.386 398.029 C 140.411 393.605, 133.928 391.863, 122.500 391.343 C 113.444 390.931, 112.022 391.117, 107.435 393.313 M 75.053 418.588 C 72.057 419.948, 69.422 421.245, 69.197 421.470 C 68.972 421.695, 70.636 423.636, 72.894 425.784 C 76.146 428.878, 77 430.404, 77 433.123 C 77 437.061, 74.931 440.523, 72.141 441.253 C 69.060 442.059, 67.639 440.572, 68.418 437.356 C 69.775 431.755, 69.593 430.513, 67.365 430.196 C 65.838 429.978, 64.629 430.865, 63.115 433.314 C 60.473 437.589, 60.461 439.434, 63.050 443.071 C 67.746 449.665, 79.003 448.727, 82.455 441.454 C 84.879 436.345, 84.203 415.924, 81.614 416.058 C 81.001 416.089, 78.049 417.228, 75.053 418.588 M 490.444 417.831 C 485.614 420.091, 479.871 426.521, 476.465 433.483 C 475.108 436.256, 472.868 443.695, 471.487 450.013 C 470.107 456.331, 468.329 463.902, 467.538 466.839 L 466.099 472.177 470.300 468.564 C 478.546 461.470, 487.351 456.951, 489.242 458.842 C 491.848 461.448, 483.550 475.122, 476.547 479.761 C 473.939 481.488, 468.984 483.840, 465.536 484.988 C 461.053 486.480, 457.037 488.928, 451.436 493.584 C 447.130 497.165, 441.031 501.659, 437.883 503.571 C 426.844 510.277, 407.283 517, 398.812 517 C 396.715 517, 395 517.400, 395 517.889 C 395 519.194, 409.634 526.550, 415.893 528.391 C 423.023 530.488, 435.799 531.471, 439.109 530.177 C 440.837 529.501, 443.359 526.358, 446.578 520.868 C 452.950 509.998, 459.621 502.094, 465.730 498.174 C 474.379 492.624, 474.998 494.226, 468.998 506.622 C 466.549 511.682, 462.821 517.240, 459.390 520.945 C 456.307 524.275, 453.979 527, 454.217 527 C 455.657 527, 469.744 521.742, 471.650 520.494 C 473.115 519.534, 474.542 516.908, 475.590 513.244 C 477.842 505.370, 486.148 489.443, 490.802 484.074 C 493.668 480.768, 495.097 479.823, 496.446 480.341 C 497.981 480.930, 498.155 481.771, 497.604 485.925 C 496.716 492.621, 493.623 501.266, 490.023 507.118 C 488.370 509.803, 487.410 512, 487.888 512 C 488.366 512, 491.711 508.870, 495.320 505.044 C 502.592 497.335, 502.604 497.305, 507.026 476.500 C 508.662 468.800, 510.221 461.539, 510.491 460.364 C 510.932 458.441, 510.438 458.160, 505.541 457.548 C 496.170 456.378, 490.055 450.632, 489.249 442.240 C 488.428 433.690, 494.043 427.012, 502.061 427.004 C 506.355 426.999, 510.256 430.192, 509.807 433.342 C 509.529 435.294, 508.995 435.467, 504.217 435.155 C 497.756 434.734, 496 435.990, 496 441.034 C 496 444.037, 496.638 445.359, 499.077 447.411 C 507.459 454.464, 520 446.627, 520 434.336 C 520 429.619, 516.467 424.393, 510.271 419.943 C 504.379 415.712, 496.717 414.896, 490.444 417.831 M 164.693 420.782 C 162.701 421.208, 161 424.792, 161 428.565 C 161 430.945, 161.184 431, 169.115 431 L 177.230 431 175.483 428.250 C 171.470 421.934, 168.600 419.948, 164.693 420.782 M 264.459 428.086 C 248.019 442.130, 234.331 448.126, 218.500 448.219 C 212.425 448.254, 208.128 447.456, 198.314 444.466 C 196.141 443.804, 196.136 443.830, 197.531 449.117 C 199.948 458.282, 203.399 461.456, 217.249 467.253 C 229.992 472.587, 229.829 472.562, 230.585 469.307 C 232.433 461.345, 239.463 454.015, 246.677 452.528 C 254.547 450.906, 264.010 461.591, 259.750 467.290 C 258.278 469.260, 257.432 468.766, 253.693 463.750 C 250.079 458.901, 246.081 458.632, 242.033 462.964 C 236.004 469.419, 237.932 479.395, 245.998 483.469 C 256.359 488.703, 278.674 483.040, 287.273 472.994 C 293.187 466.084, 300.073 445.818, 299.948 435.688 L 299.897 431.500 295.698 440.054 C 291.320 448.976, 285.688 456.853, 277.330 465.750 C 271.340 472.126, 269.539 472.515, 270.380 467.250 C 271.521 460.110, 272.286 426.333, 271.345 424.652 C 270.546 423.225, 269.595 423.700, 264.459 428.086 M 522.600 456.047 C 518.504 459.643, 516.974 463.829, 513.505 480.928 C 510.570 495.392, 508.040 501.419, 501.731 508.974 C 499.216 511.985, 497.367 514.785, 497.622 515.197 C 497.876 515.609, 500.949 516.830, 504.450 517.912 C 512.058 520.262, 520.345 524.354, 531.935 531.485 C 548.872 541.907, 550.653 542.400, 557.922 538.682 C 563.900 535.625, 566.235 532.215, 566.770 525.762 C 567.621 515.504, 562.275 509.011, 552.973 509.004 C 545.257 508.997, 542.098 513.150, 544.154 520.596 C 544.928 523.397, 545.765 524.138, 549.289 525.135 C 554.545 526.623, 556.221 528.025, 555.036 529.942 C 553.643 532.196, 544.609 531.852, 541.896 529.442 C 538.644 526.554, 536.268 520.456, 534.490 510.444 C 532.379 498.552, 532.392 490.502, 534.532 485.185 C 535.979 481.590, 536.059 480.478, 535.009 478.516 C 533.929 476.498, 534.037 475.757, 535.766 473.331 C 536.876 471.774, 538.733 469.643, 539.892 468.595 C 543.729 465.127, 541.611 457.402, 536.033 454.517 C 531.246 452.042, 526.553 452.576, 522.600 456.047 M 301.320 465.250 C 295.084 477.786, 288.329 484.110, 275.924 489.025 C 268.340 492.030, 253.351 492.826, 245.781 490.625 C 238.310 488.453, 238 488.512, 238 492.122 C 238 495.595, 238.192 495.657, 230.795 489.770 C 227.857 487.433, 210.380 481.287, 209.415 482.252 C 209.239 482.428, 210.034 486.156, 211.182 490.536 C 214.888 504.678, 213.603 528.441, 208.467 540.732 C 206.214 546.126, 205.034 543.442, 205.015 532.875 C 204.999 523.788, 204.229 518, 203.036 518 C 202.643 518, 201.760 521.938, 201.073 526.750 C 199.361 538.742, 196.523 548.105, 191.882 557.071 C 186.477 567.513, 181.713 571.953, 168.852 578.531 C 162.879 581.587, 155.016 586.339, 151.378 589.092 C 147.741 591.845, 144.503 593.836, 144.184 593.517 C 143.231 592.564, 145.829 584.173, 150.476 573.193 L 154.838 562.886 151.169 565.612 C 117.283 590.782, 107.182 605.280, 108.185 627.313 C 108.683 638.262, 111.434 644.745, 118.758 652.231 C 125.554 659.176, 130.652 661.244, 141 661.253 C 151.598 661.262, 156.642 659.349, 161.962 653.305 C 169.779 644.426, 171.273 631.132, 165.398 622.745 C 159.556 614.404, 147.509 610.671, 138.534 614.421 C 127.892 618.868, 131.110 638, 142.500 638 C 146.078 638, 150 635.556, 150 633.325 C 150 632.467, 148.628 630.202, 146.952 628.292 C 144.530 625.534, 144.144 624.531, 145.074 623.410 C 146.686 621.468, 148.684 621.642, 152.602 624.063 C 158.039 627.423, 158.927 633.914, 154.680 639.242 C 152.117 642.457, 144.149 645.279, 139.662 644.562 C 130.047 643.024, 125 636.544, 125 625.736 C 125 613.463, 132.061 606.898, 146.977 605.301 C 154.155 604.532, 154.490 604.380, 155.342 601.500 C 157.489 594.248, 158.888 592.233, 163.239 590.126 C 169.201 587.240, 174.092 587.365, 177.818 590.500 C 181.406 593.520, 182 593.592, 182 591.011 C 182 588.761, 186.824 576.227, 187.960 575.525 C 188.367 575.273, 189.432 578.764, 190.326 583.283 C 191.221 587.803, 193.772 597.533, 195.997 604.906 C 198.221 612.279, 200.620 621.954, 201.328 626.406 L 202.615 634.500 204.325 627.223 C 207.609 613.255, 207.570 609.522, 203.996 595.483 C 199.776 578.912, 200.041 570.456, 205.074 561.012 C 207.218 556.991, 208.592 555.324, 209.056 556.185 C 209.446 556.908, 210.075 561.325, 210.454 566 C 210.834 570.675, 211.468 576.075, 211.864 578 L 212.584 581.500 215.374 574.536 C 216.908 570.706, 220.518 563.472, 223.396 558.461 L 228.628 549.350 226.740 544.925 C 223.083 536.356, 219.848 497.277, 222.713 496.280 C 224.751 495.571, 231.822 503.139, 235.353 509.809 L 238.692 516.118 240.477 513.395 C 245.227 506.145, 254.676 498.009, 256.373 499.707 C 258.560 501.893, 255.296 518.305, 250.662 528.427 C 248.432 533.298, 248.305 534.044, 249.779 533.611 C 264.603 529.256, 276.188 528.605, 287.875 531.469 C 291.846 532.442, 295.248 533.072, 295.435 532.869 C 295.622 532.666, 295.540 526.153, 295.253 518.396 L 294.731 504.292 291.407 507.971 C 287.953 511.794, 275.206 519, 271.897 519 C 270.831 519, 270 518.305, 270 517.413 C 270 514.391, 280.542 500.459, 289.607 491.500 C 294.617 486.550, 299.437 481.092, 300.320 479.372 C 301.954 476.187, 306 462.581, 306 460.270 C 306 457.476, 304.274 459.313, 301.320 465.250 M 103.500 465.881 C 94.366 468.289, 85.751 475.916, 81.340 485.500 C 79.028 490.523, 78.571 492.885, 78.539 500 C 78.487 511.394, 81.362 517.669, 90.950 527.088 C 96.301 532.344, 100.123 534.991, 107.692 538.682 C 117.238 543.338, 117.786 543.476, 128.212 543.842 C 147.269 544.512, 157.738 541.226, 169.260 530.956 C 180.790 520.680, 189.236 503.214, 190.555 486.921 L 191.156 479.500 187.637 487.354 C 182.304 499.256, 178.262 505.382, 169.666 514.593 C 163.140 521.585, 160.399 523.697, 153.243 527.243 L 144.654 531.500 132.077 531.500 C 117.331 531.500, 113.310 530.162, 105.992 522.819 C 100.604 517.412, 98.063 511.124, 97.285 501.269 C 96.297 488.757, 101.231 481, 110.177 481 C 117.597 481, 119.318 486.161, 112.330 487.458 C 106.835 488.478, 105 490.511, 105 495.578 C 105 503.612, 111.713 508.603, 121.433 507.797 C 137.942 506.428, 143.496 486.650, 130.907 474.061 C 124.401 467.555, 111.619 463.740, 103.500 465.881 M 197.021 491.750 C 194.375 509.546, 188.916 525.447, 182.005 535.493 C 180.257 538.033, 176.053 543.103, 172.664 546.760 C 168.216 551.557, 167.428 552.759, 169.833 551.077 C 179.365 544.409, 191.970 523.394, 195.970 507.500 C 197.885 499.891, 199.842 483, 198.809 483 C 198.541 483, 197.737 486.938, 197.021 491.750 M 237.588 531 C 235.936 542.241, 235.873 543.570, 237.084 541.613 C 238.285 539.674, 239.708 527, 238.725 527 C 238.423 527, 237.911 528.800, 237.588 531 M 472.500 529.078 C 452.293 534.730, 441.646 537.086, 433.703 537.665 C 427.322 538.130, 425.207 538.607, 426.001 539.403 C 427.146 540.549, 438.359 540.712, 467.500 540.005 C 486.920 539.534, 493.101 540.873, 497.793 546.565 C 502.739 552.565, 504.843 563, 501.107 563 C 500.066 563, 498.997 562.435, 498.732 561.744 C 498.467 561.053, 494.999 559.140, 491.026 557.494 C 487.053 555.847, 481.765 552.725, 479.276 550.555 C 475.365 547.146, 473.968 546.553, 469.002 546.194 C 465.841 545.965, 462.987 546.212, 462.659 546.742 C 462.332 547.273, 463.962 549.077, 466.282 550.751 C 468.602 552.426, 471.941 556.205, 473.701 559.148 C 478.215 566.694, 478.606 568, 476.350 568 C 473.112 568, 457.009 563.234, 454.196 561.443 C 450.609 559.159, 447.081 554.904, 447.036 552.809 C 446.986 550.475, 446.276 550.186, 438.660 549.406 L 431.983 548.722 434.705 554.611 C 436.202 557.850, 439.477 566.095, 441.982 572.933 C 446.145 584.296, 446.789 585.433, 449.472 586.151 C 453.302 587.175, 456.798 586.246, 458.073 583.864 C 459.415 581.356, 458.586 580.209, 454.702 579.203 C 450.683 578.161, 450.111 575.629, 453.407 573.469 C 456.796 571.248, 460.786 572.601, 463.750 576.975 C 469.564 585.556, 464.013 593.540, 450.870 595.500 L 446.240 596.191 448.106 604.846 C 451.845 622.185, 457.864 635.904, 466.624 647.055 C 471.690 653.503, 477.403 657.905, 485.724 661.770 C 490.782 664.120, 492.766 664.456, 501.679 664.477 C 511.574 664.499, 511.944 664.419, 514.906 661.585 C 518.848 657.815, 520.386 653.057, 519.522 647.299 C 518.602 641.160, 515.381 638, 510.045 638 C 505.139 638, 502 640.708, 502 644.941 C 502 649.072, 503.707 649.655, 506.886 646.609 C 510.079 643.550, 511.576 643.339, 512.874 645.764 C 514.162 648.172, 511.975 653.131, 508.669 655.298 C 504.940 657.741, 501.482 657.403, 497.954 654.250 C 493.740 650.485, 492.996 644.889, 495.941 639.116 C 498.579 633.945, 498.059 632.007, 492.946 627.957 C 489.358 625.115, 488.943 624.999, 488.353 626.666 C 485.239 635.473, 481.320 641.266, 476.945 643.528 C 474.398 644.846, 474.178 644.792, 473.622 642.719 C 473.295 641.499, 473.021 635.843, 473.014 630.151 C 472.999 618.792, 474.378 614.204, 478.715 611.189 C 484.171 607.396, 486.078 605.348, 486.908 602.389 L 487.781 599.278 482.098 601.047 C 478.973 602.019, 474.297 603.133, 471.708 603.521 C 467.515 604.150, 467 604.021, 467 602.346 C 467 597.947, 479.681 582.504, 485.443 579.887 C 488.062 578.697, 491.865 578.036, 496.173 578.022 C 504.102 577.996, 507.090 576.050, 511.021 568.354 C 514.568 561.409, 514.570 549.596, 511.026 542.657 C 508.053 536.836, 503.394 532.558, 496.565 529.378 C 490.245 526.435, 482.304 526.336, 472.500 529.078 M 400 533.628 C 400 533.973, 402.241 537.279, 404.980 540.974 C 411.106 549.236, 415.284 558.003, 418.100 568.500 C 421.158 579.897, 421.192 598.160, 418.179 610.346 C 415.044 623.025, 414.067 624.087, 414.030 614.856 C 413.946 593.759, 410.457 575.930, 403.588 561.500 C 397.736 549.207, 384.442 532.225, 382.326 534.341 C 381.939 534.728, 382.648 537.397, 383.903 540.272 C 391.282 557.187, 392.321 561.070, 392.412 572.094 C 392.497 582.315, 392.377 582.927, 389 589.505 C 385.598 596.133, 378.808 603.141, 377.275 601.608 C 376.870 601.204, 377.599 598.089, 378.893 594.687 C 383.917 581.482, 384.387 578.418, 383.218 566.500 C 382.123 555.333, 379.570 546.680, 375.989 542 C 374.082 539.508, 374.080 539.517, 375.595 545 C 376.594 548.617, 377.114 554.951, 377.114 563.500 C 377.114 584.543, 374.371 591.055, 360.301 603.414 C 346.748 615.318, 341.505 621.976, 338.442 631.174 C 337.012 635.467, 335.427 639.236, 334.919 639.550 C 333.434 640.468, 331.998 635.328, 332.024 629.185 C 332.058 621.093, 334.934 614.967, 347.301 596.654 C 358.735 579.721, 361.218 573.911, 362.494 561.114 C 363.215 553.873, 362.215 542, 360.884 542 C 360.398 542, 359.984 543.913, 359.964 546.250 C 359.898 554.228, 355.618 567.827, 349.024 581.013 C 342.475 594.111, 335.274 603.611, 324.231 613.722 C 318.357 619.100, 311.573 625.476, 309.157 627.892 C 304.072 632.973, 300.554 640.087, 301.420 643.537 C 301.934 645.585, 302.701 645.936, 307.247 646.198 C 313.236 646.544, 314.522 648.478, 311.061 651.939 C 308.444 654.556, 303.439 654.606, 299.567 652.054 C 289.605 645.486, 293.299 632.134, 308.964 618.088 C 313.619 613.915, 320.594 607.411, 324.464 603.635 L 331.500 596.771 326 599.832 C 316.607 605.061, 302.782 615.196, 296.257 621.638 C 288.702 629.096, 285.867 635.054, 285.814 643.584 C 285.770 650.847, 287.567 654.806, 292.674 658.698 C 295.725 661.024, 297.319 661.494, 302.048 661.467 C 308.996 661.427, 314.481 658.215, 319.307 651.362 L 322.500 646.828 323.178 650.664 C 324.642 658.957, 321.998 665.500, 314.861 671.242 C 310.292 674.918, 302.498 675.805, 292.750 673.758 C 289.038 672.978, 286 672.681, 286 673.097 C 286 674.774, 301.516 688.765, 307.694 692.658 C 320.663 700.830, 332.916 702.295, 339.123 696.416 C 344.267 691.543, 344.979 687.129, 340.966 684.982 C 339.556 684.227, 338.256 684.780, 334.962 687.531 C 331.665 690.287, 330.461 690.797, 329.379 689.900 C 327.686 688.495, 327.640 686.884, 329.195 683.472 C 331.418 678.592, 339.525 676.459, 345.502 679.183 C 348.287 680.452, 353.021 679.346, 357.861 676.296 L 360.223 674.808 356.616 671.835 C 350.358 666.677, 344 650.627, 344 639.988 C 344 631.089, 351.785 617.681, 359.127 613.935 C 364.858 611.012, 377.293 610.817, 382.007 613.577 C 388.968 617.653, 391.750 625.876, 388.665 633.258 C 386.379 638.731, 381.782 641.243, 375.181 640.627 C 369.381 640.085, 366.813 638.650, 367.666 636.427 C 368.028 635.486, 369.735 635, 372.684 635 C 376.291 635, 377.718 634.436, 380.077 632.077 C 386.956 625.198, 380.055 616.893, 368.884 618.606 C 357.197 620.398, 352.018 627.598, 352.006 642.072 C 351.998 651.008, 354.273 657.044, 360.019 663.331 C 370.134 674.398, 384.068 677.837, 402.500 673.817 C 413.106 671.503, 424.808 663.025, 429.901 653.963 C 432.154 649.953, 432.164 649.842, 430.175 650.906 C 429.040 651.514, 427.829 652.467, 427.485 653.024 C 427.140 653.582, 424.528 655.237, 421.679 656.702 C 414.263 660.517, 401.486 661.078, 390.521 658.069 C 378.941 654.893, 378.795 654.638, 387.031 651.990 C 391.004 650.712, 398.135 647.255, 402.878 644.306 C 415.826 636.256, 423.380 632.855, 430.061 632.067 C 433.348 631.680, 436.507 630.893, 437.082 630.318 C 440.776 626.624, 440.172 599.952, 436.020 583.450 C 431.905 567.094, 420.400 548.498, 408.140 538.386 C 401.999 533.320, 400 532.152, 400 533.628 M 264 537.691 C 258.732 538.573, 251.486 541.391, 245.836 544.757 C 238.766 548.969, 237.964 550, 241.759 550 C 246.950 550, 254.512 552.890, 258.700 556.475 L 262.812 559.995 268.156 557.507 C 274.758 554.434, 278.352 554.383, 283.481 557.288 C 288.480 560.119, 289.971 563.039, 289.970 570 C 289.969 575.940, 289.444 577.298, 286.765 578.286 C 284.366 579.171, 282.941 576.139, 283.663 571.687 C 284.163 568.609, 283.809 567.655, 281.200 565.046 C 277.763 561.609, 276.168 561.345, 271.967 563.517 C 268.247 565.441, 265.978 569.816, 265.301 576.370 C 264.633 582.843, 266.605 587.857, 271.144 591.230 C 280.406 598.113, 292.418 597.358, 300.399 589.393 C 311.075 578.737, 311.222 556.381, 300.684 546.183 C 293.651 539.378, 276.979 535.518, 264 537.691 M 346.763 542.077 C 339.669 548.039, 336.362 548.987, 322.643 548.994 C 313.288 548.999, 311.868 549.213, 312.376 550.537 C 316.882 562.280, 316.954 573.232, 312.595 583.960 C 311.169 587.467, 310.172 590.505, 310.378 590.711 C 311.363 591.696, 329.675 583.744, 333.811 580.535 C 342.827 573.539, 348.598 562.036, 351.513 545.249 C 352.251 540.999, 352.775 537.461, 352.677 537.388 C 352.580 537.315, 349.918 539.425, 346.763 542.077 M 35.500 548.030 C 27.769 551.951, 22.942 561.437, 24.955 568.750 C 26.952 576.003, 31.596 582.626, 36.273 584.890 C 42.062 587.693, 46.046 587.559, 62.831 584.001 C 70.612 582.352, 86.095 580.093, 97.239 578.982 L 117.500 576.961 126.594 572.514 C 135.254 568.280, 148.680 559.347, 147.762 558.429 C 147.525 558.192, 143.769 558.958, 139.415 560.132 C 133.318 561.777, 127.595 562.375, 114.500 562.736 C 95.477 563.260, 84.015 561.845, 73.377 557.658 L 67.254 555.248 66.740 561.655 C 66.083 569.835, 62.913 574.896, 56.500 578 C 50.929 580.697, 43.350 580.390, 39.176 577.298 C 35.489 574.567, 32 569.197, 32 566.253 C 32 559.940, 37.523 554, 43.395 554 C 47.225 554, 51.333 558.075, 51.333 561.875 C 51.333 567.554, 47.454 568.486, 45.121 563.366 C 43.721 560.294, 41.936 560.691, 40.718 564.345 C 37.837 572.988, 53.234 576.249, 57.547 567.909 C 61.467 560.329, 58.248 552.235, 49.661 548.078 C 44.265 545.466, 40.581 545.453, 35.500 548.030 M 238.312 558.945 C 229.811 562.805, 224.843 574.287, 226.887 585.347 C 228.995 596.752, 234.761 605.062, 255.749 626.950 L 269.606 641.400 271.186 633.380 C 272.962 624.362, 277.226 615.002, 282.474 608.597 C 284.413 606.231, 286 604.030, 286 603.708 C 286 603.386, 283.863 602.809, 281.250 602.425 C 272.133 601.086, 266.170 597.549, 261.081 590.463 L 257.876 586 251.573 586 C 243.404 586, 240.403 583.871, 239.430 577.385 C 238.910 573.915, 239.117 572.454, 240.296 571.276 C 242.661 568.910, 244.889 570.455, 245.610 574.962 C 246.158 578.389, 246.622 579, 248.676 579 C 250.008 579, 252.198 577.811, 253.548 576.354 C 258.066 571.478, 256.134 561.672, 250.033 558.517 C 246.189 556.529, 243.410 556.631, 238.312 558.945 M 510.318 581.741 C 497.080 597.886, 493.056 604.582, 493.032 610.500 C 493.015 614.618, 497.348 623.581, 500.057 625.031 C 501.364 625.730, 504.695 626.045, 508.141 625.796 C 512.905 625.452, 514.564 624.834, 517.001 622.499 C 520.681 618.973, 521.068 613.264, 517.972 608.186 C 516.357 605.537, 515.404 604.935, 513.226 605.186 C 510.590 605.490, 510.510 605.678, 510.796 610.913 C 510.993 614.532, 510.662 616.598, 509.796 617.147 C 507.862 618.374, 507.272 618.208, 505.039 615.811 C 502.517 613.105, 502.303 606.440, 504.631 603.117 C 506.574 600.342, 511.763 598, 515.968 598 C 518.976 598, 518.999 597.958, 518.869 592.750 C 518.797 589.862, 518.460 584.233, 518.119 580.241 L 517.500 572.982 510.318 581.741 M 218.183 591.114 C 217.549 593.526, 215.915 602.062, 214.552 610.082 C 211.430 628.450, 208.155 638.808, 202.969 646.712 C 197.489 655.065, 191.297 660.290, 180.509 665.667 L 171.500 670.157 180.500 669.595 C 185.450 669.285, 194.787 668.739, 201.250 668.380 L 213 667.728 213 663.023 C 213 648.484, 222.802 637.744, 231.818 642.406 C 233.501 643.276, 235.581 644.991, 236.439 646.217 C 238.473 649.120, 238.484 656.354, 236.458 658.035 C 234.517 659.646, 233.480 658.639, 231.804 653.514 C 230.337 649.030, 228.104 648.046, 224.602 650.341 C 221.766 652.199, 219.527 659.667, 220.404 664.342 C 221.322 669.234, 226.291 675.598, 231.114 678.058 C 244.017 684.641, 258.081 679.370, 264.622 665.500 C 269.876 654.360, 266.911 648.465, 243.997 624.500 C 229.542 609.382, 222.774 599.768, 220.493 591.114 L 219.336 586.727 218.183 591.114 M 167.514 596.577 C 164.192 598.301, 162.076 600.840, 162.032 603.158 C 162.014 604.070, 164.894 609.145, 168.432 614.435 C 176.242 626.117, 177.405 629.367, 176.740 637.650 C 176.134 645.194, 172.721 652.763, 166.988 659.277 L 162.996 663.811 168.685 662.326 C 176.399 660.311, 185.323 655.673, 188 652.287 C 189.891 649.895, 190.113 648.729, 189.570 644.057 C 188.993 639.092, 182.101 605.890, 181.506 605.209 C 181.366 605.050, 179.635 605.873, 177.659 607.039 C 172.025 610.363, 171.260 609.026, 173.539 599.839 C 174.459 596.132, 171.480 594.519, 167.514 596.577 M 528 612.237 C 528 616.040, 525.192 624.486, 523.002 627.270 C 521.901 628.670, 521 630.073, 521 630.387 C 521 630.702, 522.913 631.944, 525.250 633.147 C 533.488 637.387, 542.205 635.495, 545.031 628.853 C 547.001 624.223, 542.657 618.749, 531.750 612.117 L 528 609.837 528 612.237 M 91.614 624.997 C 86.571 630.590, 79.464 645.663, 77.526 654.876 C 75.204 665.916, 75.449 666.190, 81.667 659.500 C 93.184 647.111, 96.490 639.356, 95.800 626.347 L 95.500 620.687 91.614 624.997 M 444.138 629.667 C 442.865 636.007, 442.669 639.664, 443.656 638.678 C 444.016 638.317, 444.579 636.377, 444.906 634.365 C 445.233 632.354, 445.935 630.662, 446.467 630.604 C 446.998 630.547, 449.473 634.162, 451.967 638.637 C 456.844 647.393, 467.001 660.395, 470.372 662.199 C 471.511 662.809, 469.658 660.080, 466.255 656.136 C 460.059 648.955, 454.676 640.528, 449.399 629.750 C 447.850 626.587, 446.289 624, 445.930 624 C 445.570 624, 444.764 626.550, 444.138 629.667 M 441.339 644.195 C 439.714 646.320, 435.817 656.150, 436.377 656.710 C 436.660 656.994, 437.751 655.813, 438.801 654.086 C 441.105 650.298, 441.669 650.797, 445.488 660 C 449.519 669.715, 451.868 671.247, 448.364 661.876 C 447.464 659.469, 445.739 654.213, 444.532 650.195 C 442.930 644.866, 442.066 643.243, 441.339 644.195 M 279.645 685.119 C 279.290 688.515, 279 693.458, 279 696.105 C 279 700.707, 279.184 701.023, 283.250 703.406 C 289.412 707.016, 298.208 709.002, 307.960 708.985 C 320.175 708.963, 320.666 708.092, 311.336 702.993 C 299.999 696.797, 295.381 693.478, 287.395 685.787 L 280.291 678.944 279.645 685.119 M 267.315 712.011 C 262.917 713.776, 261.700 719.752, 264.894 723.906 C 268.398 728.464, 272.400 723.671, 271.798 715.636 C 271.475 711.317, 270.669 710.665, 267.315 712.011 M 297.750 717.689 C 295.315 718.326, 295.567 721.385, 298.318 724.583 L 300.636 727.278 302.818 724.504 C 307.081 719.085, 304.693 715.875, 297.750 717.689 M 172.670 791.750 C 236.563 791.892, 341.413 791.892, 405.670 791.750 C 469.926 791.608, 417.650 791.492, 289.500 791.492 C 161.350 791.492, 108.776 791.608, 172.670 791.750" stroke="none" fill="#b5a7f8" fill-rule="evenodd"/></svg>