<?xml version="1.0" encoding="UTF-8" standalone="no" ?>
<!DOCTYPE svg PUBLIC "-//W3C//DTD SVG 1.1//EN" "http://www.w3.org/Graphics/SVG/1.1/DTD/svg11.dtd">
<svg xmlns="http://www.w3.org/2000/svg" xmlns:xlink="http://www.w3.org/1999/xlink" version="1.1" width="1500" height="500" viewBox="0 0 1500 500" xml:space="preserve">
<desc>Created with Fabric.js 4.6.0</desc>
<defs>
</defs>
<g transform="matrix(3.93 0 0 3.93 109.81 250)" id="m4qtGfv4l0oMIBUTnp6j0"  >
<path style="stroke: none; stroke-width: 1; stroke-dasharray: none; stroke-linecap: butt; stroke-dashoffset: 0; stroke-linejoin: miter; stroke-miterlimit: 4; fill: rgb(170,147,218); fill-rule: evenodd; opacity: 1;" vector-effect="non-scaling-stroke"  transform=" translate(-47.38, -41.35)" d="M 41.47 9.031 C 39.305 11.248 36.075 14.06 34.293 15.281 C 30.254 18.046 29.405 21.618 31.332 27.752 C 32.78 32.365 34.289 47.664 34.431 59.17 C 34.488 63.821 34.073 65.296 32.124 67.369 C 30.818 68.759 28.455 70.18 26.874 70.528 C 20.3 71.972 24.964 75.565 34.5 76.403 C 37.8 76.692 41.979 77.224 43.787 77.584 C 46.483 78.12 48.131 77.586 52.938 74.619 C 60.163 70.16 64.913 69.802 67.821 73.499 C 70.269 76.611 71.021 75.212 70.955 67.668 C 70.881 59.215 66.971 53.371 57.213 47.127 C 47.603 40.978 46.891 37.859 53.591 31.254 C 57.459 27.44 58.076 26.317 57.512 24.114 C 57.143 22.676 56.603 18.238 56.312 14.25 C 55.747 6.535 54.612 4.937 53.451 10.223 C 52.577 14.2 49.059 19.836 45.787 22.5 C 44.436 23.6 42.131 26.292 40.665 28.482 L 38 32.464 L 38.024 28.982 C 38.068 22.786 40.022 16.708 43.55 11.797 C 49.101 4.071 47.888 2.458 41.47 9.031" stroke-linecap="round" />
</g>
<g transform="matrix(1 0 0 1 869.55 250)" style="" id="YgIxzDek3Y7m8th-oDk8n"  >
		<text xml:space="preserve" font-family="Cardo" font-size="242" font-style="normal" font-weight="700" letter-spacing="0.484" line-height="1" style="stroke: none; stroke-width: 1; stroke-dasharray: none; stroke-linecap: butt; stroke-dashoffset: 0; stroke-linejoin: miter; stroke-miterlimit: 4; fill: rgb(170,147,218); fill-rule: nonzero; opacity: 1; white-space: pre;" ><tspan x="-666.17" y="74.25" >D</tspan><tspan x="-458.43" y="74.25" >r</tspan><tspan x="-366.84" y="74.25" >e</tspan><tspan x="-246.54" y="74.25" >s</tspan><tspan x="-156.49" y="74.25" >s</tspan><tspan x="-66.43" y="74.25" >i</tspan><tspan x="11.09" y="74.25" >n</tspan><tspan x="167.08" y="74.25" >g</tspan><tspan x="312.2" y="74.25" >i</tspan><tspan x="389.73" y="74.25" >t</tspan><tspan x="475.64" y="74.25" >y</tspan></text>
</g>
</svg>