<svg xmlns="http://www.w3.org/2000/svg" width="186" height="328" viewBox="0 0 186 328" version="1.1"><path d="M 35.636 18.636 C 34.186 20.086, 33 21.599, 33 21.997 C 33 22.396, 30.231 22.973, 26.847 23.280 C 19.495 23.947, 16.339 25.976, 13.250 32.020 C 5.912 46.382, 18.264 76, 31.592 76 C 34.187 76, 35.945 75.113, 38.765 72.382 C 42.192 69.062, 42.225 68.980, 39.173 71.382 C 32.967 76.267, 28.541 76.103, 23.078 70.788 C 13.913 61.871, 8.711 38.397, 14.486 32.015 C 16.949 29.294, 17.348 29.416, 20.232 33.775 C 23.943 39.382, 34.441 49.426, 39.268 51.986 L 43.500 54.231 43.500 60.197 C 43.500 66.016, 43.609 66.256, 47.916 69.928 C 51.084 72.630, 52.147 74.175, 51.677 75.399 C 51.289 76.409, 51.425 76.855, 52.011 76.493 C 53.996 75.266, 52.899 72.870, 48.365 68.525 C 43.098 63.478, 43.112 63.671, 46.720 47 C 48.220 40.069, 49.154 37.914, 51.780 35.327 C 55.622 31.541, 56.115 26.212, 53.054 21.567 C 48.994 15.408, 40.323 13.949, 35.636 18.636 M 44.004 75.300 C 43.995 77.177, 47.156 81.953, 49.977 84.327 C 51.654 85.739, 56.210 87.918, 60.100 89.171 C 69.423 92.174, 72.977 96.038, 76.409 106.900 C 79.576 116.926, 80.581 128.302, 79.125 137.652 C 78.513 141.586, 77.749 145.491, 77.427 146.329 C 76.972 147.515, 77.360 147.720, 79.171 147.254 C 83.846 146.048, 93.350 134.816, 102.520 119.658 C 112.519 103.131, 116.698 97.727, 121.350 95.313 C 125.209 93.310, 123.309 92.413, 118.541 93.986 C 113.589 95.621, 107.489 102.921, 100.072 116.088 C 92.762 129.068, 87.122 137.712, 84.329 140.217 C 82.455 141.899, 82.414 141.682, 82.378 129.717 C 82.322 111.539, 78.197 97.014, 71.394 91.041 C 69.405 89.295, 65.083 87.218, 60.770 85.938 C 51.062 83.055, 48.280 81.508, 45.960 77.701 C 44.886 75.941, 44.006 74.860, 44.004 75.300" stroke="none" fill="#2c3544" fill-rule="evenodd"/><path d="M 12.500 33 C 12.840 33.550, 13.343 34, 13.618 34 C 13.893 34, 13.840 33.550, 13.500 33 C 13.160 32.450, 12.657 32, 12.382 32 C 12.107 32, 12.160 32.450, 12.500 33 M 11.500 36 C 11.840 36.550, 12.343 37, 12.618 37 C 12.893 37, 12.840 36.550, 12.500 36 C 12.160 35.450, 11.657 35, 11.382 35 C 11.107 35, 11.160 35.450, 11.500 36 M 11.405 48.155 C 10.962 48.870, 11.130 49.038, 11.845 48.595 C 12.998 47.883, 13.393 47, 12.559 47 C 12.316 47, 11.797 47.520, 11.405 48.155 M 12.405 53.155 C 11.962 53.870, 12.130 54.038, 12.845 53.595 C 13.480 53.203, 14 52.684, 14 52.441 C 14 51.607, 13.117 52.002, 12.405 53.155 M 17.768 97.923 C 7.167 99.079, 5.043 102.585, 7.585 114.735 C 11.076 131.422, 28.242 154.300, 44 163.268 C 47.264 165.125, 57.695 169, 59.432 169 C 59.469 169, 59.505 164.387, 59.511 158.750 C 59.521 148.841, 59.667 148.167, 63.904 138.500 C 69.460 125.821, 70.973 120.144, 70.988 111.924 C 70.998 106.377, 70.646 105.016, 68.736 103.222 C 63.697 98.488, 59.572 97.605, 41.500 97.391 C 32.150 97.280, 21.471 97.520, 17.768 97.923 M 18.391 156.050 C 19.026 171.018, 21.741 188.744, 25.046 199.500 C 28.472 210.648, 33.458 219.162, 40.546 225.968 C 48.287 233.402, 56.045 237.184, 75.500 243.011 C 90.637 247.545, 103.047 252.872, 110.637 258.094 C 126.368 268.917, 140.507 289.785, 150.889 317.500 C 154.326 326.675, 154.569 326.059, 152.514 313.387 C 148.323 287.546, 136.027 251.768, 122.826 227 C 114.953 212.228, 106.374 200.317, 96.528 190.487 C 84.860 178.839, 75.617 173.768, 61.895 171.490 C 45.726 168.806, 31.699 160.154, 20.569 146 L 17.816 142.500 18.391 156.050" stroke="none" fill="#e4335c" fill-rule="evenodd"/><path d="M -0 164.005 L -0 328.010 93.250 327.755 L 186.500 327.500 186.753 163.750 L 187.006 -0 93.503 -0 L 0 0 -0 164.005 M 0.488 164.500 C 0.488 254.700, 0.606 291.452, 0.750 246.171 C 0.894 200.890, 0.894 127.090, 0.750 82.171 C 0.606 37.252, 0.488 74.300, 0.488 164.500 M 35.646 18.452 C 34.191 19.801, 33 21.322, 33 21.832 C 33 22.342, 30.294 22.955, 26.987 23.195 C 20.588 23.657, 17.241 25.451, 13.562 30.392 C 10.553 34.432, 10.722 50.099, 13.862 58.145 C 18.155 69.144, 25.028 75.989, 31.789 75.996 C 34.280 75.999, 36.098 75.014, 39.289 71.933 L 43.500 67.866 38.545 71.531 C 34.400 74.597, 33.026 75.104, 30.130 74.634 C 21.278 73.197, 12.065 56.346, 12.016 41.500 C 12.003 37.382, 14.655 30.882, 16.596 30.278 C 17.199 30.090, 18.886 31.740, 20.345 33.946 C 24.197 39.766, 33.273 48.536, 38.754 51.732 L 43.500 54.500 43.532 60.394 C 43.563 66.106, 43.701 66.406, 47.970 70.084 C 52.079 73.622, 52.296 74.055, 51.188 76.486 C 49.555 80.071, 49.757 81.050, 51.500 78 C 53.696 74.158, 53.349 73.067, 48.500 68.551 C 43.257 63.669, 43.054 62.240, 46 51 C 47.081 46.875, 47.973 42.457, 47.983 41.183 C 47.993 39.846, 49.480 37.470, 51.500 35.565 C 55.472 31.819, 56.155 27.134, 53.483 21.967 C 50.328 15.866, 40.522 13.934, 35.646 18.452 M 44 75.318 C 44 77.175, 47.163 81.959, 49.931 84.288 C 51.582 85.678, 55.849 87.785, 59.413 88.971 C 67.492 91.660, 70.430 93.941, 73.422 99.849 C 79.126 111.115, 81.111 126.062, 78.687 139.500 C 77.894 143.900, 77.372 147.646, 77.529 147.824 C 77.686 148.002, 79.140 147.462, 80.761 146.623 C 85.926 143.952, 93.587 134.434, 102.672 119.401 C 112.722 102.770, 116.666 97.756, 121.852 95.016 C 125.482 93.098, 125.486 93.088, 122.700 93.044 C 115.157 92.925, 108.563 100.147, 97.066 121.121 C 91.728 130.858, 85.330 140.079, 83.500 140.674 C 82.873 140.878, 82.473 136.435, 82.427 128.750 C 82.348 115.451, 80.515 106.030, 76.420 97.880 C 73.448 91.966, 69.407 88.602, 62.781 86.528 C 50.821 82.782, 48.954 81.826, 46.473 78.175 C 45.113 76.173, 44 74.888, 44 75.318 M 17.768 97.923 C 7.167 99.079, 5.043 102.585, 7.585 114.735 C 11.076 131.422, 28.242 154.300, 44 163.268 C 47.264 165.125, 57.695 169, 59.432 169 C 59.469 169, 59.505 164.387, 59.511 158.750 C 59.521 148.841, 59.667 148.167, 63.904 138.500 C 69.460 125.821, 70.973 120.144, 70.988 111.924 C 70.998 106.377, 70.646 105.016, 68.736 103.222 C 63.697 98.488, 59.572 97.605, 41.500 97.391 C 32.150 97.280, 21.471 97.520, 17.768 97.923 M 18.391 156.050 C 19.026 171.018, 21.741 188.744, 25.046 199.500 C 28.472 210.648, 33.458 219.162, 40.546 225.968 C 48.287 233.402, 56.045 237.184, 75.500 243.011 C 90.637 247.545, 103.047 252.872, 110.637 258.094 C 126.368 268.917, 140.507 289.785, 150.889 317.500 C 154.326 326.675, 154.569 326.059, 152.514 313.387 C 148.323 287.546, 136.027 251.768, 122.826 227 C 114.953 212.228, 106.374 200.317, 96.528 190.487 C 84.860 178.839, 75.617 173.768, 61.895 171.490 C 45.726 168.806, 31.699 160.154, 20.569 146 L 17.816 142.500 18.391 156.050" stroke="none" fill="#fbfafa" fill-rule="evenodd"/></svg>